<mxfile host="Electron" modified="2023-12-22T17:18:40.022Z" agent="Mozilla/5.0 (Windows NT 10.0; Win64; x64) AppleWebKit/537.36 (KHTML, like Gecko) draw.io/22.1.2 Chrome/114.0.5735.289 Electron/25.9.4 Safari/537.36" etag="uVM4VWTl3LjRa2BJzqFM" version="22.1.2" type="device">
  <diagram name="Sida-1" id="jouxOrNFPZKE8_uhJ4qf">
    <mxGraphModel dx="1100" dy="809" grid="1" gridSize="10" guides="1" tooltips="1" connect="1" arrows="1" fold="1" page="1" pageScale="1" pageWidth="827" pageHeight="1169" math="0" shadow="0">
      <root>
        <mxCell id="0" />
        <mxCell id="1" parent="0" />
        <mxCell id="SRUq4UJ1imat5ZAe_kLp-1" value="" style="rounded=0;whiteSpace=wrap;html=1;fillColor=#e6d0de;gradientColor=#d5739d;strokeColor=#996185;" vertex="1" parent="1">
          <mxGeometry x="1064" y="320" width="40" height="40" as="geometry" />
        </mxCell>
        <mxCell id="SRUq4UJ1imat5ZAe_kLp-2" value="" style="rounded=0;whiteSpace=wrap;html=1;fillColor=#e6d0de;gradientColor=#d5739d;strokeColor=#996185;" vertex="1" parent="1">
          <mxGeometry x="864" y="320" width="40" height="40" as="geometry" />
        </mxCell>
        <mxCell id="SRUq4UJ1imat5ZAe_kLp-3" value="" style="rounded=0;whiteSpace=wrap;html=1;fillColor=#e6d0de;gradientColor=#d5739d;strokeColor=#996185;" vertex="1" parent="1">
          <mxGeometry x="664" y="320" width="40" height="40" as="geometry" />
        </mxCell>
        <mxCell id="SRUq4UJ1imat5ZAe_kLp-4" value="" style="rounded=0;whiteSpace=wrap;html=1;fillColor=#e6d0de;gradientColor=#d5739d;strokeColor=#996185;" vertex="1" parent="1">
          <mxGeometry x="464" y="320" width="40" height="40" as="geometry" />
        </mxCell>
        <mxCell id="SRUq4UJ1imat5ZAe_kLp-5" value="" style="rounded=0;whiteSpace=wrap;html=1;fillColor=#ffcd28;gradientColor=#ffa500;strokeColor=#d79b00;" vertex="1" parent="1">
          <mxGeometry x="120" y="161" width="40" height="40" as="geometry" />
        </mxCell>
        <mxCell id="SRUq4UJ1imat5ZAe_kLp-6" value="" style="rounded=0;whiteSpace=wrap;html=1;fillColor=#dae8fc;gradientColor=#7ea6e0;strokeColor=#6c8ebf;" vertex="1" parent="1">
          <mxGeometry x="304" y="280" width="80" height="40" as="geometry" />
        </mxCell>
        <mxCell id="SRUq4UJ1imat5ZAe_kLp-7" value="" style="rounded=0;whiteSpace=wrap;html=1;fillColor=#e6d0de;gradientColor=#d5739d;strokeColor=#996185;" vertex="1" parent="1">
          <mxGeometry x="264" y="320" width="40" height="40" as="geometry" />
        </mxCell>
        <mxCell id="SRUq4UJ1imat5ZAe_kLp-8" value="" style="rounded=0;whiteSpace=wrap;html=1;fillColor=#d5e8d4;gradientColor=#97d077;strokeColor=#82b366;" vertex="1" parent="1">
          <mxGeometry x="159" y="120" width="80" height="40" as="geometry" />
        </mxCell>
        <mxCell id="SRUq4UJ1imat5ZAe_kLp-9" value="" style="rounded=0;whiteSpace=wrap;html=1;fillColor=#ffcd28;gradientColor=#ffa500;strokeColor=#d79b00;" vertex="1" parent="1">
          <mxGeometry x="119" y="160" width="40" height="40" as="geometry" />
        </mxCell>
        <mxCell id="SRUq4UJ1imat5ZAe_kLp-10" value="" style="endArrow=none;html=1;rounded=0;" edge="1" parent="1">
          <mxGeometry width="50" height="50" relative="1" as="geometry">
            <mxPoint x="119" y="360" as="sourcePoint" />
            <mxPoint x="1220" y="360" as="targetPoint" />
          </mxGeometry>
        </mxCell>
        <mxCell id="SRUq4UJ1imat5ZAe_kLp-11" value="" style="endArrow=none;html=1;rounded=0;" edge="1" parent="1">
          <mxGeometry width="50" height="50" relative="1" as="geometry">
            <mxPoint x="119" y="360" as="sourcePoint" />
            <mxPoint x="119" y="120" as="targetPoint" />
          </mxGeometry>
        </mxCell>
        <mxCell id="SRUq4UJ1imat5ZAe_kLp-12" value="" style="endArrow=classic;html=1;rounded=0;fillColor=#e51400;strokeColor=#B20000;" edge="1" parent="1">
          <mxGeometry width="50" height="50" relative="1" as="geometry">
            <mxPoint x="264" y="360" as="sourcePoint" />
            <mxPoint x="264" y="330" as="targetPoint" />
          </mxGeometry>
        </mxCell>
        <mxCell id="SRUq4UJ1imat5ZAe_kLp-13" value="" style="endArrow=classic;html=1;rounded=0;fillColor=#e51400;strokeColor=#B20000;" edge="1" parent="1">
          <mxGeometry width="50" height="50" relative="1" as="geometry">
            <mxPoint x="264" y="320" as="sourcePoint" />
            <mxPoint x="264" y="290" as="targetPoint" />
          </mxGeometry>
        </mxCell>
        <mxCell id="SRUq4UJ1imat5ZAe_kLp-14" value="" style="endArrow=classic;html=1;rounded=0;fillColor=#e51400;strokeColor=#B20000;" edge="1" parent="1">
          <mxGeometry width="50" height="50" relative="1" as="geometry">
            <mxPoint x="119" y="200" as="sourcePoint" />
            <mxPoint x="119" y="170" as="targetPoint" />
          </mxGeometry>
        </mxCell>
        <mxCell id="SRUq4UJ1imat5ZAe_kLp-15" value="" style="endArrow=classic;html=1;rounded=0;fillColor=#e51400;strokeColor=#B20000;" edge="1" parent="1">
          <mxGeometry width="50" height="50" relative="1" as="geometry">
            <mxPoint x="119" y="160" as="sourcePoint" />
            <mxPoint x="119" y="130" as="targetPoint" />
          </mxGeometry>
        </mxCell>
        <mxCell id="SRUq4UJ1imat5ZAe_kLp-16" value="Task 1" style="text;html=1;strokeColor=none;fillColor=none;align=center;verticalAlign=middle;whiteSpace=wrap;rounded=0;" vertex="1" parent="1">
          <mxGeometry x="59" y="130" width="60" height="30" as="geometry" />
        </mxCell>
        <mxCell id="SRUq4UJ1imat5ZAe_kLp-17" value="Task 2" style="text;html=1;strokeColor=none;fillColor=none;align=center;verticalAlign=middle;whiteSpace=wrap;rounded=0;" vertex="1" parent="1">
          <mxGeometry x="59" y="170" width="60" height="30" as="geometry" />
        </mxCell>
        <mxCell id="SRUq4UJ1imat5ZAe_kLp-18" value="Task 3" style="text;html=1;strokeColor=none;fillColor=none;align=center;verticalAlign=middle;whiteSpace=wrap;rounded=0;" vertex="1" parent="1">
          <mxGeometry x="57" y="282" width="60" height="30" as="geometry" />
        </mxCell>
        <mxCell id="SRUq4UJ1imat5ZAe_kLp-19" value="Task 4" style="text;html=1;strokeColor=none;fillColor=none;align=center;verticalAlign=middle;whiteSpace=wrap;rounded=0;" vertex="1" parent="1">
          <mxGeometry x="57" y="322" width="60" height="30" as="geometry" />
        </mxCell>
        <mxCell id="SRUq4UJ1imat5ZAe_kLp-20" value="" style="endArrow=none;html=1;rounded=0;" edge="1" parent="1">
          <mxGeometry width="50" height="50" relative="1" as="geometry">
            <mxPoint x="119" y="380" as="sourcePoint" />
            <mxPoint x="119" y="360" as="targetPoint" />
          </mxGeometry>
        </mxCell>
        <mxCell id="SRUq4UJ1imat5ZAe_kLp-21" value="" style="endArrow=none;html=1;rounded=0;" edge="1" parent="1">
          <mxGeometry width="50" height="50" relative="1" as="geometry">
            <mxPoint x="319" y="380" as="sourcePoint" />
            <mxPoint x="319" y="360" as="targetPoint" />
          </mxGeometry>
        </mxCell>
        <mxCell id="SRUq4UJ1imat5ZAe_kLp-22" value="" style="endArrow=none;html=1;rounded=0;" edge="1" parent="1">
          <mxGeometry width="50" height="50" relative="1" as="geometry">
            <mxPoint x="519" y="380" as="sourcePoint" />
            <mxPoint x="519" y="360" as="targetPoint" />
          </mxGeometry>
        </mxCell>
        <mxCell id="SRUq4UJ1imat5ZAe_kLp-23" value="" style="endArrow=none;html=1;rounded=0;" edge="1" parent="1">
          <mxGeometry width="50" height="50" relative="1" as="geometry">
            <mxPoint x="719" y="380" as="sourcePoint" />
            <mxPoint x="719" y="360" as="targetPoint" />
          </mxGeometry>
        </mxCell>
        <mxCell id="SRUq4UJ1imat5ZAe_kLp-24" value="" style="endArrow=none;html=1;rounded=0;" edge="1" parent="1">
          <mxGeometry width="50" height="50" relative="1" as="geometry">
            <mxPoint x="919" y="380" as="sourcePoint" />
            <mxPoint x="919" y="360" as="targetPoint" />
          </mxGeometry>
        </mxCell>
        <mxCell id="SRUq4UJ1imat5ZAe_kLp-25" value="" style="endArrow=none;html=1;rounded=0;" edge="1" parent="1">
          <mxGeometry width="50" height="50" relative="1" as="geometry">
            <mxPoint x="1119" y="380" as="sourcePoint" />
            <mxPoint x="1119" y="360" as="targetPoint" />
          </mxGeometry>
        </mxCell>
        <mxCell id="SRUq4UJ1imat5ZAe_kLp-26" value="" style="endArrow=none;html=1;rounded=0;" edge="1" parent="1">
          <mxGeometry width="50" height="50" relative="1" as="geometry">
            <mxPoint x="159" y="370" as="sourcePoint" />
            <mxPoint x="158.67000000000002" y="360" as="targetPoint" />
          </mxGeometry>
        </mxCell>
        <mxCell id="SRUq4UJ1imat5ZAe_kLp-27" value="" style="endArrow=none;html=1;rounded=0;" edge="1" parent="1">
          <mxGeometry width="50" height="50" relative="1" as="geometry">
            <mxPoint x="199" y="370" as="sourcePoint" />
            <mxPoint x="199" y="360" as="targetPoint" />
          </mxGeometry>
        </mxCell>
        <mxCell id="SRUq4UJ1imat5ZAe_kLp-28" value="" style="endArrow=none;html=1;rounded=0;" edge="1" parent="1">
          <mxGeometry width="50" height="50" relative="1" as="geometry">
            <mxPoint x="239" y="370" as="sourcePoint" />
            <mxPoint x="239" y="360" as="targetPoint" />
          </mxGeometry>
        </mxCell>
        <mxCell id="SRUq4UJ1imat5ZAe_kLp-29" value="" style="endArrow=none;html=1;rounded=0;" edge="1" parent="1">
          <mxGeometry width="50" height="50" relative="1" as="geometry">
            <mxPoint x="279" y="370" as="sourcePoint" />
            <mxPoint x="279" y="360" as="targetPoint" />
          </mxGeometry>
        </mxCell>
        <mxCell id="SRUq4UJ1imat5ZAe_kLp-30" value="" style="endArrow=none;html=1;rounded=0;" edge="1" parent="1">
          <mxGeometry width="50" height="50" relative="1" as="geometry">
            <mxPoint x="359" y="370" as="sourcePoint" />
            <mxPoint x="359" y="360" as="targetPoint" />
          </mxGeometry>
        </mxCell>
        <mxCell id="SRUq4UJ1imat5ZAe_kLp-31" value="" style="endArrow=none;html=1;rounded=0;" edge="1" parent="1">
          <mxGeometry width="50" height="50" relative="1" as="geometry">
            <mxPoint x="399" y="370" as="sourcePoint" />
            <mxPoint x="399" y="360" as="targetPoint" />
          </mxGeometry>
        </mxCell>
        <mxCell id="SRUq4UJ1imat5ZAe_kLp-32" value="" style="endArrow=none;html=1;rounded=0;" edge="1" parent="1">
          <mxGeometry width="50" height="50" relative="1" as="geometry">
            <mxPoint x="439" y="370" as="sourcePoint" />
            <mxPoint x="439" y="360" as="targetPoint" />
          </mxGeometry>
        </mxCell>
        <mxCell id="SRUq4UJ1imat5ZAe_kLp-33" value="" style="endArrow=none;html=1;rounded=0;" edge="1" parent="1">
          <mxGeometry width="50" height="50" relative="1" as="geometry">
            <mxPoint x="479" y="370" as="sourcePoint" />
            <mxPoint x="479" y="360" as="targetPoint" />
          </mxGeometry>
        </mxCell>
        <mxCell id="SRUq4UJ1imat5ZAe_kLp-34" value="" style="endArrow=none;html=1;rounded=0;" edge="1" parent="1">
          <mxGeometry width="50" height="50" relative="1" as="geometry">
            <mxPoint x="559" y="370" as="sourcePoint" />
            <mxPoint x="559" y="360" as="targetPoint" />
          </mxGeometry>
        </mxCell>
        <mxCell id="SRUq4UJ1imat5ZAe_kLp-35" value="" style="endArrow=none;html=1;rounded=0;" edge="1" parent="1">
          <mxGeometry width="50" height="50" relative="1" as="geometry">
            <mxPoint x="599" y="370" as="sourcePoint" />
            <mxPoint x="599" y="360" as="targetPoint" />
          </mxGeometry>
        </mxCell>
        <mxCell id="SRUq4UJ1imat5ZAe_kLp-36" value="" style="endArrow=none;html=1;rounded=0;" edge="1" parent="1">
          <mxGeometry width="50" height="50" relative="1" as="geometry">
            <mxPoint x="639" y="370" as="sourcePoint" />
            <mxPoint x="639" y="360" as="targetPoint" />
          </mxGeometry>
        </mxCell>
        <mxCell id="SRUq4UJ1imat5ZAe_kLp-37" value="" style="endArrow=none;html=1;rounded=0;" edge="1" parent="1">
          <mxGeometry width="50" height="50" relative="1" as="geometry">
            <mxPoint x="679" y="370" as="sourcePoint" />
            <mxPoint x="679" y="360" as="targetPoint" />
          </mxGeometry>
        </mxCell>
        <mxCell id="SRUq4UJ1imat5ZAe_kLp-38" value="" style="endArrow=none;html=1;rounded=0;" edge="1" parent="1">
          <mxGeometry width="50" height="50" relative="1" as="geometry">
            <mxPoint x="759" y="370" as="sourcePoint" />
            <mxPoint x="759" y="360" as="targetPoint" />
          </mxGeometry>
        </mxCell>
        <mxCell id="SRUq4UJ1imat5ZAe_kLp-39" value="" style="endArrow=none;html=1;rounded=0;" edge="1" parent="1">
          <mxGeometry width="50" height="50" relative="1" as="geometry">
            <mxPoint x="799" y="370" as="sourcePoint" />
            <mxPoint x="799" y="360" as="targetPoint" />
          </mxGeometry>
        </mxCell>
        <mxCell id="SRUq4UJ1imat5ZAe_kLp-40" value="" style="endArrow=none;html=1;rounded=0;" edge="1" parent="1">
          <mxGeometry width="50" height="50" relative="1" as="geometry">
            <mxPoint x="839" y="370" as="sourcePoint" />
            <mxPoint x="839" y="360" as="targetPoint" />
          </mxGeometry>
        </mxCell>
        <mxCell id="SRUq4UJ1imat5ZAe_kLp-41" value="" style="endArrow=none;html=1;rounded=0;" edge="1" parent="1">
          <mxGeometry width="50" height="50" relative="1" as="geometry">
            <mxPoint x="879" y="370" as="sourcePoint" />
            <mxPoint x="879" y="360" as="targetPoint" />
          </mxGeometry>
        </mxCell>
        <mxCell id="SRUq4UJ1imat5ZAe_kLp-42" value="" style="endArrow=none;html=1;rounded=0;" edge="1" parent="1">
          <mxGeometry width="50" height="50" relative="1" as="geometry">
            <mxPoint x="959" y="370" as="sourcePoint" />
            <mxPoint x="959" y="360" as="targetPoint" />
          </mxGeometry>
        </mxCell>
        <mxCell id="SRUq4UJ1imat5ZAe_kLp-43" value="" style="endArrow=none;html=1;rounded=0;" edge="1" parent="1">
          <mxGeometry width="50" height="50" relative="1" as="geometry">
            <mxPoint x="999" y="370" as="sourcePoint" />
            <mxPoint x="999" y="360" as="targetPoint" />
          </mxGeometry>
        </mxCell>
        <mxCell id="SRUq4UJ1imat5ZAe_kLp-44" value="" style="endArrow=none;html=1;rounded=0;" edge="1" parent="1">
          <mxGeometry width="50" height="50" relative="1" as="geometry">
            <mxPoint x="1039" y="370" as="sourcePoint" />
            <mxPoint x="1039" y="360" as="targetPoint" />
          </mxGeometry>
        </mxCell>
        <mxCell id="SRUq4UJ1imat5ZAe_kLp-45" value="" style="endArrow=none;html=1;rounded=0;" edge="1" parent="1">
          <mxGeometry width="50" height="50" relative="1" as="geometry">
            <mxPoint x="1079" y="370" as="sourcePoint" />
            <mxPoint x="1079" y="360" as="targetPoint" />
          </mxGeometry>
        </mxCell>
        <mxCell id="SRUq4UJ1imat5ZAe_kLp-46" value="&lt;font style=&quot;font-size: 8px;&quot;&gt;t = 0&lt;/font&gt;" style="text;html=1;strokeColor=none;fillColor=none;align=center;verticalAlign=middle;whiteSpace=wrap;rounded=0;" vertex="1" parent="1">
          <mxGeometry x="99" y="380" width="40" height="20" as="geometry" />
        </mxCell>
        <mxCell id="SRUq4UJ1imat5ZAe_kLp-47" value="&lt;font style=&quot;font-size: 8px;&quot;&gt;1&lt;/font&gt;" style="text;html=1;strokeColor=none;fillColor=none;align=center;verticalAlign=middle;whiteSpace=wrap;rounded=0;" vertex="1" parent="1">
          <mxGeometry x="149" y="380" width="20" height="20" as="geometry" />
        </mxCell>
        <mxCell id="SRUq4UJ1imat5ZAe_kLp-48" value="&lt;font style=&quot;font-size: 8px;&quot;&gt;2&lt;/font&gt;" style="text;html=1;strokeColor=none;fillColor=none;align=center;verticalAlign=middle;whiteSpace=wrap;rounded=0;" vertex="1" parent="1">
          <mxGeometry x="189" y="380" width="20" height="20" as="geometry" />
        </mxCell>
        <mxCell id="SRUq4UJ1imat5ZAe_kLp-49" value="&lt;font style=&quot;font-size: 8px;&quot;&gt;3&lt;/font&gt;" style="text;html=1;strokeColor=none;fillColor=none;align=center;verticalAlign=middle;whiteSpace=wrap;rounded=0;" vertex="1" parent="1">
          <mxGeometry x="229" y="380" width="20" height="20" as="geometry" />
        </mxCell>
        <mxCell id="SRUq4UJ1imat5ZAe_kLp-50" value="&lt;font style=&quot;font-size: 8px;&quot;&gt;4&lt;/font&gt;" style="text;html=1;strokeColor=none;fillColor=none;align=center;verticalAlign=middle;whiteSpace=wrap;rounded=0;" vertex="1" parent="1">
          <mxGeometry x="269" y="380" width="20" height="20" as="geometry" />
        </mxCell>
        <mxCell id="SRUq4UJ1imat5ZAe_kLp-51" value="&lt;font style=&quot;font-size: 8px;&quot;&gt;5&lt;/font&gt;" style="text;html=1;strokeColor=none;fillColor=none;align=center;verticalAlign=middle;whiteSpace=wrap;rounded=0;" vertex="1" parent="1">
          <mxGeometry x="309" y="380" width="20" height="20" as="geometry" />
        </mxCell>
        <mxCell id="SRUq4UJ1imat5ZAe_kLp-52" value="&lt;span style=&quot;font-size: 8px;&quot;&gt;6&lt;/span&gt;" style="text;html=1;strokeColor=none;fillColor=none;align=center;verticalAlign=middle;whiteSpace=wrap;rounded=0;" vertex="1" parent="1">
          <mxGeometry x="349" y="380" width="20" height="20" as="geometry" />
        </mxCell>
        <mxCell id="SRUq4UJ1imat5ZAe_kLp-53" value="&lt;span style=&quot;font-size: 8px;&quot;&gt;7&lt;/span&gt;" style="text;html=1;strokeColor=none;fillColor=none;align=center;verticalAlign=middle;whiteSpace=wrap;rounded=0;" vertex="1" parent="1">
          <mxGeometry x="389" y="380" width="20" height="20" as="geometry" />
        </mxCell>
        <mxCell id="SRUq4UJ1imat5ZAe_kLp-54" value="&lt;font style=&quot;font-size: 8px;&quot;&gt;8&lt;/font&gt;" style="text;html=1;strokeColor=none;fillColor=none;align=center;verticalAlign=middle;whiteSpace=wrap;rounded=0;" vertex="1" parent="1">
          <mxGeometry x="429" y="380" width="20" height="20" as="geometry" />
        </mxCell>
        <mxCell id="SRUq4UJ1imat5ZAe_kLp-55" value="&lt;font style=&quot;font-size: 8px;&quot;&gt;9&lt;/font&gt;" style="text;html=1;strokeColor=none;fillColor=none;align=center;verticalAlign=middle;whiteSpace=wrap;rounded=0;" vertex="1" parent="1">
          <mxGeometry x="469" y="380" width="20" height="20" as="geometry" />
        </mxCell>
        <mxCell id="SRUq4UJ1imat5ZAe_kLp-56" value="&lt;font style=&quot;font-size: 8px;&quot;&gt;10&lt;/font&gt;" style="text;html=1;strokeColor=none;fillColor=none;align=center;verticalAlign=middle;whiteSpace=wrap;rounded=0;" vertex="1" parent="1">
          <mxGeometry x="509" y="380" width="20" height="20" as="geometry" />
        </mxCell>
        <mxCell id="SRUq4UJ1imat5ZAe_kLp-57" value="&lt;font style=&quot;font-size: 8px;&quot;&gt;11&lt;/font&gt;" style="text;html=1;strokeColor=none;fillColor=none;align=center;verticalAlign=middle;whiteSpace=wrap;rounded=0;" vertex="1" parent="1">
          <mxGeometry x="549" y="380" width="20" height="20" as="geometry" />
        </mxCell>
        <mxCell id="SRUq4UJ1imat5ZAe_kLp-58" value="&lt;font style=&quot;font-size: 8px;&quot;&gt;12&lt;/font&gt;" style="text;html=1;strokeColor=none;fillColor=none;align=center;verticalAlign=middle;whiteSpace=wrap;rounded=0;" vertex="1" parent="1">
          <mxGeometry x="589" y="380" width="20" height="20" as="geometry" />
        </mxCell>
        <mxCell id="SRUq4UJ1imat5ZAe_kLp-59" value="&lt;font style=&quot;font-size: 8px;&quot;&gt;13&lt;/font&gt;" style="text;html=1;strokeColor=none;fillColor=none;align=center;verticalAlign=middle;whiteSpace=wrap;rounded=0;" vertex="1" parent="1">
          <mxGeometry x="629" y="380" width="20" height="20" as="geometry" />
        </mxCell>
        <mxCell id="SRUq4UJ1imat5ZAe_kLp-60" value="&lt;font style=&quot;font-size: 8px;&quot;&gt;14&lt;/font&gt;" style="text;html=1;strokeColor=none;fillColor=none;align=center;verticalAlign=middle;whiteSpace=wrap;rounded=0;" vertex="1" parent="1">
          <mxGeometry x="669" y="380" width="20" height="20" as="geometry" />
        </mxCell>
        <mxCell id="SRUq4UJ1imat5ZAe_kLp-61" value="&lt;font style=&quot;font-size: 8px;&quot;&gt;15&lt;/font&gt;" style="text;html=1;strokeColor=none;fillColor=none;align=center;verticalAlign=middle;whiteSpace=wrap;rounded=0;" vertex="1" parent="1">
          <mxGeometry x="709" y="380" width="20" height="20" as="geometry" />
        </mxCell>
        <mxCell id="SRUq4UJ1imat5ZAe_kLp-62" value="&lt;font style=&quot;font-size: 8px;&quot;&gt;16&lt;/font&gt;" style="text;html=1;strokeColor=none;fillColor=none;align=center;verticalAlign=middle;whiteSpace=wrap;rounded=0;" vertex="1" parent="1">
          <mxGeometry x="749" y="380" width="20" height="20" as="geometry" />
        </mxCell>
        <mxCell id="SRUq4UJ1imat5ZAe_kLp-63" value="&lt;font style=&quot;font-size: 8px;&quot;&gt;17&lt;/font&gt;" style="text;html=1;strokeColor=none;fillColor=none;align=center;verticalAlign=middle;whiteSpace=wrap;rounded=0;" vertex="1" parent="1">
          <mxGeometry x="789" y="380" width="20" height="20" as="geometry" />
        </mxCell>
        <mxCell id="SRUq4UJ1imat5ZAe_kLp-64" value="&lt;font style=&quot;font-size: 8px;&quot;&gt;18&lt;/font&gt;" style="text;html=1;strokeColor=none;fillColor=none;align=center;verticalAlign=middle;whiteSpace=wrap;rounded=0;" vertex="1" parent="1">
          <mxGeometry x="829" y="380" width="20" height="20" as="geometry" />
        </mxCell>
        <mxCell id="SRUq4UJ1imat5ZAe_kLp-65" value="&lt;font style=&quot;font-size: 8px;&quot;&gt;19&lt;/font&gt;" style="text;html=1;strokeColor=none;fillColor=none;align=center;verticalAlign=middle;whiteSpace=wrap;rounded=0;" vertex="1" parent="1">
          <mxGeometry x="859" y="380" width="40" height="20" as="geometry" />
        </mxCell>
        <mxCell id="SRUq4UJ1imat5ZAe_kLp-66" value="&lt;font style=&quot;font-size: 8px;&quot;&gt;20&lt;/font&gt;" style="text;html=1;strokeColor=none;fillColor=none;align=center;verticalAlign=middle;whiteSpace=wrap;rounded=0;" vertex="1" parent="1">
          <mxGeometry x="909" y="380" width="20" height="20" as="geometry" />
        </mxCell>
        <mxCell id="SRUq4UJ1imat5ZAe_kLp-67" value="&lt;font style=&quot;font-size: 8px;&quot;&gt;21&lt;/font&gt;" style="text;html=1;strokeColor=none;fillColor=none;align=center;verticalAlign=middle;whiteSpace=wrap;rounded=0;" vertex="1" parent="1">
          <mxGeometry x="949" y="380" width="20" height="20" as="geometry" />
        </mxCell>
        <mxCell id="SRUq4UJ1imat5ZAe_kLp-68" value="&lt;font style=&quot;font-size: 8px;&quot;&gt;22&lt;/font&gt;" style="text;html=1;strokeColor=none;fillColor=none;align=center;verticalAlign=middle;whiteSpace=wrap;rounded=0;" vertex="1" parent="1">
          <mxGeometry x="989" y="380" width="20" height="20" as="geometry" />
        </mxCell>
        <mxCell id="SRUq4UJ1imat5ZAe_kLp-69" value="&lt;font style=&quot;font-size: 8px;&quot;&gt;23&lt;/font&gt;" style="text;html=1;strokeColor=none;fillColor=none;align=center;verticalAlign=middle;whiteSpace=wrap;rounded=0;" vertex="1" parent="1">
          <mxGeometry x="1029" y="380" width="20" height="20" as="geometry" />
        </mxCell>
        <mxCell id="SRUq4UJ1imat5ZAe_kLp-70" value="&lt;font style=&quot;font-size: 8px;&quot;&gt;24&lt;/font&gt;" style="text;html=1;strokeColor=none;fillColor=none;align=center;verticalAlign=middle;whiteSpace=wrap;rounded=0;" vertex="1" parent="1">
          <mxGeometry x="1069" y="380" width="20" height="20" as="geometry" />
        </mxCell>
        <mxCell id="SRUq4UJ1imat5ZAe_kLp-71" value="&lt;font style=&quot;font-size: 8px;&quot;&gt;25&lt;/font&gt;" style="text;html=1;strokeColor=none;fillColor=none;align=center;verticalAlign=middle;whiteSpace=wrap;rounded=0;" vertex="1" parent="1">
          <mxGeometry x="1109" y="380" width="20" height="20" as="geometry" />
        </mxCell>
        <mxCell id="SRUq4UJ1imat5ZAe_kLp-72" value="" style="rounded=0;whiteSpace=wrap;html=1;fillColor=#647687;strokeColor=#314354;fontColor=#ffffff;" vertex="1" parent="1">
          <mxGeometry x="239" y="200" width="65" height="40" as="geometry" />
        </mxCell>
        <mxCell id="SRUq4UJ1imat5ZAe_kLp-73" value="Msg1" style="text;html=1;strokeColor=none;fillColor=none;align=center;verticalAlign=middle;whiteSpace=wrap;rounded=0;" vertex="1" parent="1">
          <mxGeometry x="59" y="207.5" width="60" height="30" as="geometry" />
        </mxCell>
        <mxCell id="SRUq4UJ1imat5ZAe_kLp-76" value="" style="rounded=0;whiteSpace=wrap;html=1;fillColor=#ffcd28;gradientColor=#ffa500;strokeColor=#d79b00;" vertex="1" parent="1">
          <mxGeometry x="319" y="160" width="40" height="40" as="geometry" />
        </mxCell>
        <mxCell id="SRUq4UJ1imat5ZAe_kLp-77" value="" style="endArrow=classic;html=1;rounded=0;fillColor=#e51400;strokeColor=#B20000;strokeWidth=1;" edge="1" parent="1">
          <mxGeometry width="50" height="50" relative="1" as="geometry">
            <mxPoint x="318.76" y="200" as="sourcePoint" />
            <mxPoint x="318.76" y="170" as="targetPoint" />
          </mxGeometry>
        </mxCell>
        <mxCell id="SRUq4UJ1imat5ZAe_kLp-78" value="" style="rounded=0;whiteSpace=wrap;html=1;fillColor=#ffcd28;gradientColor=#ffa500;strokeColor=#d79b00;" vertex="1" parent="1">
          <mxGeometry x="519" y="160" width="40" height="40" as="geometry" />
        </mxCell>
        <mxCell id="SRUq4UJ1imat5ZAe_kLp-79" value="" style="rounded=0;whiteSpace=wrap;html=1;fillColor=#ffcd28;gradientColor=#ffa500;strokeColor=#d79b00;" vertex="1" parent="1">
          <mxGeometry x="719" y="160" width="40" height="40" as="geometry" />
        </mxCell>
        <mxCell id="SRUq4UJ1imat5ZAe_kLp-80" value="" style="rounded=0;whiteSpace=wrap;html=1;fillColor=#ffcd28;gradientColor=#ffa500;strokeColor=#d79b00;" vertex="1" parent="1">
          <mxGeometry x="919" y="161" width="40" height="40" as="geometry" />
        </mxCell>
        <mxCell id="SRUq4UJ1imat5ZAe_kLp-81" value="" style="rounded=0;whiteSpace=wrap;html=1;fillColor=#d5e8d4;gradientColor=#97d077;strokeColor=#82b366;" vertex="1" parent="1">
          <mxGeometry x="559" y="120" width="80" height="40" as="geometry" />
        </mxCell>
        <mxCell id="SRUq4UJ1imat5ZAe_kLp-82" value="" style="rounded=0;whiteSpace=wrap;html=1;fillColor=#d5e8d4;gradientColor=#97d077;strokeColor=#82b366;" vertex="1" parent="1">
          <mxGeometry x="959" y="121" width="80" height="40" as="geometry" />
        </mxCell>
        <mxCell id="SRUq4UJ1imat5ZAe_kLp-83" value="" style="endArrow=classic;html=1;rounded=0;fillColor=#e51400;strokeColor=#B20000;" edge="1" parent="1">
          <mxGeometry width="50" height="50" relative="1" as="geometry">
            <mxPoint x="464" y="360" as="sourcePoint" />
            <mxPoint x="464" y="330" as="targetPoint" />
          </mxGeometry>
        </mxCell>
        <mxCell id="SRUq4UJ1imat5ZAe_kLp-84" value="" style="rounded=0;whiteSpace=wrap;html=1;fillColor=#dae8fc;gradientColor=#7ea6e0;strokeColor=#6c8ebf;" vertex="1" parent="1">
          <mxGeometry x="705" y="280" width="80" height="40" as="geometry" />
        </mxCell>
        <mxCell id="SRUq4UJ1imat5ZAe_kLp-85" value="" style="endArrow=classic;html=1;rounded=0;fillColor=#e51400;strokeColor=#B20000;" edge="1" parent="1">
          <mxGeometry width="50" height="50" relative="1" as="geometry">
            <mxPoint x="664" y="360" as="sourcePoint" />
            <mxPoint x="664" y="330" as="targetPoint" />
          </mxGeometry>
        </mxCell>
        <mxCell id="SRUq4UJ1imat5ZAe_kLp-86" value="" style="endArrow=classic;html=1;rounded=0;fillColor=#e51400;strokeColor=#B20000;" edge="1" parent="1">
          <mxGeometry width="50" height="50" relative="1" as="geometry">
            <mxPoint x="664" y="320" as="sourcePoint" />
            <mxPoint x="664" y="290" as="targetPoint" />
          </mxGeometry>
        </mxCell>
        <mxCell id="SRUq4UJ1imat5ZAe_kLp-87" value="" style="endArrow=classic;html=1;rounded=0;fillColor=#e51400;strokeColor=#B20000;" edge="1" parent="1">
          <mxGeometry width="50" height="50" relative="1" as="geometry">
            <mxPoint x="864" y="361" as="sourcePoint" />
            <mxPoint x="864" y="331" as="targetPoint" />
          </mxGeometry>
        </mxCell>
        <mxCell id="SRUq4UJ1imat5ZAe_kLp-88" value="" style="rounded=0;whiteSpace=wrap;html=1;fillColor=#dae8fc;gradientColor=#7ea6e0;strokeColor=#6c8ebf;" vertex="1" parent="1">
          <mxGeometry x="1104" y="280" width="80" height="40" as="geometry" />
        </mxCell>
        <mxCell id="SRUq4UJ1imat5ZAe_kLp-89" value="" style="endArrow=classic;html=1;rounded=0;fillColor=#e51400;strokeColor=#B20000;" edge="1" parent="1">
          <mxGeometry width="50" height="50" relative="1" as="geometry">
            <mxPoint x="1064" y="361" as="sourcePoint" />
            <mxPoint x="1064" y="331" as="targetPoint" />
          </mxGeometry>
        </mxCell>
        <mxCell id="SRUq4UJ1imat5ZAe_kLp-90" value="" style="endArrow=classic;html=1;rounded=0;fillColor=#e51400;strokeColor=#B20000;" edge="1" parent="1">
          <mxGeometry width="50" height="50" relative="1" as="geometry">
            <mxPoint x="1064" y="321" as="sourcePoint" />
            <mxPoint x="1064" y="291" as="targetPoint" />
          </mxGeometry>
        </mxCell>
        <mxCell id="SRUq4UJ1imat5ZAe_kLp-91" value="" style="endArrow=classic;html=1;rounded=0;fillColor=#e51400;strokeColor=#B20000;strokeWidth=1;" edge="1" parent="1">
          <mxGeometry width="50" height="50" relative="1" as="geometry">
            <mxPoint x="519" y="161" as="sourcePoint" />
            <mxPoint x="519" y="131" as="targetPoint" />
          </mxGeometry>
        </mxCell>
        <mxCell id="SRUq4UJ1imat5ZAe_kLp-92" value="" style="endArrow=classic;html=1;rounded=0;fillColor=#e51400;strokeColor=#B20000;strokeWidth=1;" edge="1" parent="1">
          <mxGeometry width="50" height="50" relative="1" as="geometry">
            <mxPoint x="518.31" y="200" as="sourcePoint" />
            <mxPoint x="518.31" y="170" as="targetPoint" />
          </mxGeometry>
        </mxCell>
        <mxCell id="SRUq4UJ1imat5ZAe_kLp-93" value="" style="endArrow=classic;html=1;rounded=0;fillColor=#e51400;strokeColor=#B20000;strokeWidth=1;" edge="1" parent="1">
          <mxGeometry width="50" height="50" relative="1" as="geometry">
            <mxPoint x="719" y="200" as="sourcePoint" />
            <mxPoint x="719" y="170" as="targetPoint" />
          </mxGeometry>
        </mxCell>
        <mxCell id="SRUq4UJ1imat5ZAe_kLp-94" value="" style="endArrow=classic;html=1;rounded=0;fillColor=#e51400;strokeColor=#B20000;strokeWidth=1;" edge="1" parent="1">
          <mxGeometry width="50" height="50" relative="1" as="geometry">
            <mxPoint x="918.31" y="201" as="sourcePoint" />
            <mxPoint x="918.31" y="171" as="targetPoint" />
          </mxGeometry>
        </mxCell>
        <mxCell id="SRUq4UJ1imat5ZAe_kLp-95" value="" style="endArrow=classic;html=1;rounded=0;fillColor=#e51400;strokeColor=#B20000;strokeWidth=1;" edge="1" parent="1">
          <mxGeometry width="50" height="50" relative="1" as="geometry">
            <mxPoint x="918.66" y="161" as="sourcePoint" />
            <mxPoint x="918.66" y="131" as="targetPoint" />
          </mxGeometry>
        </mxCell>
        <mxCell id="SRUq4UJ1imat5ZAe_kLp-97" value="" style="endArrow=classic;dashed=1;html=1;dashPattern=1 3;strokeWidth=2;rounded=0;exitX=1;exitY=1;exitDx=0;exitDy=0;entryX=0;entryY=0;entryDx=0;entryDy=0;fillColor=#e51400;strokeColor=#DE0000;startArrow=none;startFill=0;endFill=1;" edge="1" parent="1">
          <mxGeometry width="50" height="50" relative="1" as="geometry">
            <mxPoint x="638.6600000000001" y="161" as="sourcePoint" />
            <mxPoint x="638.6600000000001" y="201" as="targetPoint" />
          </mxGeometry>
        </mxCell>
        <mxCell id="SRUq4UJ1imat5ZAe_kLp-98" value="" style="endArrow=none;dashed=1;html=1;dashPattern=1 3;strokeWidth=2;rounded=0;entryX=1;entryY=0;entryDx=0;entryDy=0;exitX=0;exitY=0;exitDx=0;exitDy=0;fillColor=#e51400;strokeColor=#F70000;startArrow=classic;startFill=1;" edge="1" parent="1" source="SRUq4UJ1imat5ZAe_kLp-81" target="SRUq4UJ1imat5ZAe_kLp-8">
          <mxGeometry width="50" height="50" relative="1" as="geometry">
            <mxPoint x="797" y="98" as="sourcePoint" />
            <mxPoint x="393" y="58" as="targetPoint" />
          </mxGeometry>
        </mxCell>
        <mxCell id="SRUq4UJ1imat5ZAe_kLp-99" value="" style="endArrow=none;dashed=1;html=1;dashPattern=1 3;strokeWidth=2;rounded=0;entryX=1;entryY=1;entryDx=0;entryDy=0;startArrow=classic;startFill=1;fillColor=#e51400;strokeColor=#FF0000;" edge="1" parent="1" target="SRUq4UJ1imat5ZAe_kLp-116">
          <mxGeometry width="50" height="50" relative="1" as="geometry">
            <mxPoint x="984" y="360" as="sourcePoint" />
            <mxPoint x="1198" y="386" as="targetPoint" />
          </mxGeometry>
        </mxCell>
        <mxCell id="SRUq4UJ1imat5ZAe_kLp-100" value="" style="endArrow=none;html=1;rounded=0;" edge="1" parent="1">
          <mxGeometry width="50" height="50" relative="1" as="geometry">
            <mxPoint x="984" y="456" as="sourcePoint" />
            <mxPoint x="984" y="424" as="targetPoint" />
            <Array as="points">
              <mxPoint x="984" y="440" />
            </Array>
          </mxGeometry>
        </mxCell>
        <mxCell id="SRUq4UJ1imat5ZAe_kLp-101" value="" style="endArrow=none;html=1;rounded=0;" edge="1" parent="1">
          <mxGeometry width="50" height="50" relative="1" as="geometry">
            <mxPoint x="159" y="456" as="sourcePoint" />
            <mxPoint x="159" y="424" as="targetPoint" />
          </mxGeometry>
        </mxCell>
        <mxCell id="SRUq4UJ1imat5ZAe_kLp-104" value="" style="rounded=0;whiteSpace=wrap;html=1;fillColor=#647687;strokeColor=#314354;fontColor=#ffffff;" vertex="1" parent="1">
          <mxGeometry x="639" y="201" width="65" height="40" as="geometry" />
        </mxCell>
        <mxCell id="SRUq4UJ1imat5ZAe_kLp-105" value="" style="rounded=0;whiteSpace=wrap;html=1;fillColor=#647687;strokeColor=#314354;fontColor=#ffffff;" vertex="1" parent="1">
          <mxGeometry x="1039" y="200" width="65" height="40" as="geometry" />
        </mxCell>
        <mxCell id="SRUq4UJ1imat5ZAe_kLp-106" value="" style="endArrow=none;dashed=1;html=1;dashPattern=1 3;strokeWidth=2;rounded=0;entryX=1;entryY=1;entryDx=0;entryDy=0;exitX=0;exitY=0;exitDx=0;exitDy=0;fillColor=#e51400;strokeColor=#FF0808;startArrow=classic;startFill=1;" edge="1" parent="1" source="SRUq4UJ1imat5ZAe_kLp-116" target="SRUq4UJ1imat5ZAe_kLp-104">
          <mxGeometry width="50" height="50" relative="1" as="geometry">
            <mxPoint x="897" y="407" as="sourcePoint" />
            <mxPoint x="947" y="357" as="targetPoint" />
          </mxGeometry>
        </mxCell>
        <mxCell id="SRUq4UJ1imat5ZAe_kLp-107" value="" style="endArrow=none;html=1;rounded=0;" edge="1" parent="1">
          <mxGeometry width="50" height="50" relative="1" as="geometry">
            <mxPoint x="1159" y="370" as="sourcePoint" />
            <mxPoint x="1159" y="360" as="targetPoint" />
          </mxGeometry>
        </mxCell>
        <mxCell id="SRUq4UJ1imat5ZAe_kLp-108" value="" style="endArrow=none;html=1;rounded=0;" edge="1" parent="1">
          <mxGeometry width="50" height="50" relative="1" as="geometry">
            <mxPoint x="1199" y="370" as="sourcePoint" />
            <mxPoint x="1199" y="360" as="targetPoint" />
          </mxGeometry>
        </mxCell>
        <mxCell id="SRUq4UJ1imat5ZAe_kLp-110" value="&lt;font style=&quot;font-size: 8px;&quot;&gt;26&lt;/font&gt;" style="text;html=1;strokeColor=none;fillColor=none;align=center;verticalAlign=middle;whiteSpace=wrap;rounded=0;" vertex="1" parent="1">
          <mxGeometry x="1149" y="380" width="20" height="20" as="geometry" />
        </mxCell>
        <mxCell id="SRUq4UJ1imat5ZAe_kLp-111" value="&lt;font style=&quot;font-size: 8px;&quot;&gt;27&lt;/font&gt;" style="text;html=1;strokeColor=none;fillColor=none;align=center;verticalAlign=middle;whiteSpace=wrap;rounded=0;" vertex="1" parent="1">
          <mxGeometry x="1189" y="380" width="20" height="20" as="geometry" />
        </mxCell>
        <mxCell id="SRUq4UJ1imat5ZAe_kLp-112" value="" style="endArrow=classic;html=1;rounded=0;exitX=0;exitY=0.5;exitDx=0;exitDy=0;" edge="1" parent="1" source="SRUq4UJ1imat5ZAe_kLp-113">
          <mxGeometry width="50" height="50" relative="1" as="geometry">
            <mxPoint x="439" y="440" as="sourcePoint" />
            <mxPoint x="159" y="440" as="targetPoint" />
          </mxGeometry>
        </mxCell>
        <mxCell id="SRUq4UJ1imat5ZAe_kLp-113" value="Reaction Delay =&amp;nbsp; 14.62 + 7 - 1 = 20.62ms" style="text;html=1;strokeColor=none;fillColor=none;align=center;verticalAlign=middle;whiteSpace=wrap;rounded=0;" vertex="1" parent="1">
          <mxGeometry x="453" y="420" width="256" height="40" as="geometry" />
        </mxCell>
        <mxCell id="SRUq4UJ1imat5ZAe_kLp-114" value="" style="endArrow=classic;html=1;rounded=0;exitX=1;exitY=0.5;exitDx=0;exitDy=0;" edge="1" parent="1" source="SRUq4UJ1imat5ZAe_kLp-113">
          <mxGeometry width="50" height="50" relative="1" as="geometry">
            <mxPoint x="849" y="320" as="sourcePoint" />
            <mxPoint x="983" y="440" as="targetPoint" />
          </mxGeometry>
        </mxCell>
        <mxCell id="SRUq4UJ1imat5ZAe_kLp-115" value="" style="rounded=0;whiteSpace=wrap;html=1;fillColor=#dae8fc;gradientColor=#7ea6e0;strokeColor=#6c8ebf;" vertex="1" parent="1">
          <mxGeometry x="504" y="280" width="80" height="40" as="geometry" />
        </mxCell>
        <mxCell id="SRUq4UJ1imat5ZAe_kLp-116" value="" style="rounded=0;whiteSpace=wrap;html=1;fillColor=#dae8fc;gradientColor=#7ea6e0;strokeColor=#6c8ebf;" vertex="1" parent="1">
          <mxGeometry x="904" y="280" width="80" height="40" as="geometry" />
        </mxCell>
      </root>
    </mxGraphModel>
  </diagram>
</mxfile>
